<svg width="10" height="10" viewBox="0 0 10 10" fill="none" xmlns="http://www.w3.org/2000/svg">
<path fill-rule="evenodd" clip-rule="evenodd" d="M5 10C2.23858 10 0 7.76142 0 5C0 2.23858 2.23858 0 5 0C7.76142 0 10 2.23858 10 5C10 7.76142 7.76142 10 5 10ZM5 9C7.20914 9 9 7.20914 9 5C9 2.79086 7.20914 1 5 1C2.79086 1 1 2.79086 1 5C1 7.20914 2.79086 9 5 9ZM3.89645 6.85355L2.39645 5.35355C2.20118 5.15829 2.20118 4.84171 2.39645 4.64645C2.59171 4.45118 2.90829 4.45118 3.10355 4.64645L4.25 5.79993L6.64645 3.39645C6.84171 3.20118 7.15829 3.20118 7.35355 3.39645C7.54882 3.59171 7.54882 3.90829 7.35355 4.10355L4.60355 6.85355C4.40829 7.04882 4.09171 7.04882 3.89645 6.85355Z" fill="#0ED322"/>
</svg>
