<svg width="10" height="10" viewBox="0 0 10 10" fill="none" xmlns="http://www.w3.org/2000/svg">
<path fill-rule="evenodd" clip-rule="evenodd" d="M4.85223 4.29289L6.05461 3.05389C6.24357 2.85918 6.54981 2.86019 6.7393 3.05546C6.93011 3.25208 6.92947 3.5666 6.74082 3.761L5.53844 5L6.74082 6.239C6.92947 6.4334 6.93011 6.74792 6.7393 6.94454C6.54981 7.13981 6.24357 7.14082 6.05461 6.94611L4.85223 5.70711L3.64985 6.94611C3.46089 7.14082 3.15465 7.13981 2.96516 6.94454C2.77435 6.74792 2.77499 6.4334 2.96365 6.239L4.16603 5L2.96365 3.761C2.77499 3.5666 2.77435 3.25208 2.96516 3.05546C3.15465 2.86019 3.46089 2.85918 3.64985 3.05389L4.85223 4.29289ZM4.85222 10C2.17241 10 0 7.76142 0 5C0 2.23858 2.17241 0 4.85222 0C7.53202 0 9.70443 2.23858 9.70443 5C9.70443 7.76142 7.53202 10 4.85222 10ZM4.85222 9C6.99606 9 8.73399 7.20914 8.73399 5C8.73399 2.79086 6.99606 1 4.85222 1C2.70837 1 0.970443 2.79086 0.970443 5C0.970443 7.20914 2.70837 9 4.85222 9Z" fill="#FF0100"/>
</svg>
