<svg width="19" height="18" viewBox="0 0 19 18" fill="none" xmlns="http://www.w3.org/2000/svg">
<path d="M7.50778 9.60209C7.50778 9.40677 7.34936 9.24854 7.15388 9.24854H5.9189C5.72364 9.24854 5.56519 9.40677 5.56519 9.60209V10.8369C5.56519 11.0325 5.72364 11.1908 5.9189 11.1908H7.15388C7.34936 11.1908 7.50778 11.0325 7.50778 10.8369V9.60209Z" fill="#A3B4B9"/>
<path d="M10.5945 9.60209C10.5945 9.40677 10.436 9.24854 10.241 9.24854H9.00581C8.81056 9.24854 8.6521 9.40677 8.6521 9.60209V10.8369C8.6521 11.0325 8.81056 11.1908 9.00581 11.1908H10.241C10.436 11.1908 10.5945 11.0325 10.5945 10.8369V9.60209Z" fill="#A3B4B9"/>
<path d="M13.6809 9.60209C13.6809 9.40677 13.5224 9.24854 13.3272 9.24854H12.0922C11.8967 9.24854 11.7383 9.40677 11.7383 9.60209V10.8369C11.7383 11.0325 11.8967 11.1908 12.0922 11.1908H13.3272C13.5224 11.1908 13.6809 11.0325 13.6809 10.8369V9.60209Z" fill="#A3B4B9"/>
<path d="M7.50778 12.6887C7.50778 12.4931 7.34936 12.335 7.15388 12.335H5.9189C5.72364 12.335 5.56519 12.4931 5.56519 12.6887V13.9233C5.56519 14.1187 5.72364 14.277 5.9189 14.277H7.15388C7.34936 14.277 7.50778 14.1187 7.50778 13.9233V12.6887Z" fill="#A3B4B9"/>
<path d="M10.5945 12.6887C10.5945 12.4931 10.436 12.335 10.241 12.335H9.00581C8.81056 12.335 8.6521 12.4931 8.6521 12.6887V13.9233C8.6521 14.1187 8.81056 14.277 9.00581 14.277H10.241C10.436 14.277 10.5945 14.1187 10.5945 13.9233V12.6887Z" fill="#A3B4B9"/>
<path d="M13.6809 12.6887C13.6809 12.4931 13.5224 12.335 13.3273 12.335H12.0922C11.8967 12.335 11.7383 12.4931 11.7383 12.6887V13.9233C11.7383 14.1187 11.8967 14.277 12.0922 14.277H13.3273C13.5224 14.277 13.6809 14.1187 13.6809 13.9233V12.6887Z" fill="#A3B4B9"/>
<path d="M15.8892 2.73626V4.62236C15.8892 5.47485 15.1976 6.16183 14.3452 6.16183H13.3712C12.5188 6.16183 11.8181 5.47485 11.8181 4.62236V2.72949H7.42815V4.62236C7.42815 5.47485 6.72744 6.16183 5.87513 6.16183H4.90098C4.04864 6.16183 3.35709 5.47485 3.35709 4.62236V2.73626C2.61214 2.75872 2 3.37514 2 4.1328V15.1862C2 15.9581 2.62565 16.5921 3.39756 16.5921H15.8487C16.6194 16.5921 17.2462 15.9568 17.2462 15.1862V4.1328C17.2462 3.37514 16.6341 2.75872 15.8892 2.73626ZM15.4368 14.4979C15.4368 14.8315 15.1663 15.1021 14.8326 15.1021H4.38702C4.0533 15.1021 3.78283 14.8315 3.78283 14.4979V8.78841C3.78283 8.45469 4.05327 8.18406 4.38702 8.18406H14.8326C15.1663 8.18406 15.4368 8.45469 15.4368 8.78841L15.4368 14.4979Z" fill="#A3B4B9"/>
<path d="M4.89768 5.15053H5.86107C6.15349 5.15053 6.39058 4.91378 6.39058 4.62137V1.52935C6.39058 1.2369 6.15349 1 5.86107 1H4.89768C4.60523 1 4.36816 1.2369 4.36816 1.52935V4.62137C4.36816 4.91378 4.60523 5.15053 4.89768 5.15053Z" fill="#A3B4B9"/>
<path d="M13.3588 5.15053H14.3222C14.6144 5.15053 14.8515 4.91378 14.8515 4.62137V1.52935C14.8516 1.2369 14.6145 1 14.3222 1H13.3588C13.0664 1 12.8293 1.2369 12.8293 1.52935V4.62137C12.8293 4.91378 13.0664 5.15053 13.3588 5.15053Z" fill="#A3B4B9"/>
</svg>
