<svg width="220" height="83" viewBox="0 0 220 83" fill="none" xmlns="http://www.w3.org/2000/svg">
<g clip-path="url(#clip0)">
<path fill-rule="evenodd" clip-rule="evenodd" d="M0 38.8208C0.379955 40.8638 1.26234 39.3806 2.52394 40.6945C3.89399 42.1218 3.27942 55.3552 3.27868 58.6098C3.27794 59.8016 3.20195 61.1655 2.53058 61.9601C1.91011 62.695 1.09486 62.6457 0.844017 63.2681C0.196249 64.8712 3.44985 64.0281 5.43742 64.0266C7.11586 64.0251 9.10786 64.4489 10.5096 64.0406C10.2536 62.7347 10.5576 63.2814 9.27017 62.812C8.55822 62.5523 8.20335 62.4177 7.76068 61.9424C6.50351 60.5902 6.93437 56.5153 6.93511 53.8478C6.93511 50.986 7.17415 51.6466 14.0938 51.6459C17.7959 51.6451 17.3732 50.6063 17.3695 57.7174C17.3658 64.9491 15.7176 61.3428 15.3081 63.9677L23.8774 64.2569C24.0095 61.3502 20.9595 64.5121 20.9588 58.6105C20.9588 56.4307 20.5685 41.7046 21.366 40.571C22.2189 39.3578 22.6084 40.5982 23.0511 38.9664C22.5996 38.6876 23.558 38.8053 22.165 38.653C22.0455 38.6398 14.7924 38.5397 14.1026 38.9664C14.3844 39.7823 13.6231 39.3571 15.0071 39.8471C17.7767 40.8277 17.3717 41.5318 17.3717 46.705C17.3717 50.791 16.0976 49.6684 12.0044 49.6684C11.1028 49.6684 8.51911 49.7993 7.81749 49.6801C6.37808 49.4352 6.93437 46.0187 6.93216 43.1333C6.92847 39.043 8.59215 41.0021 9.07023 38.9664C8.07645 38.4036 7.35859 38.6508 5.73622 38.7215C3.16728 38.8333 2.82716 38.4625 0 38.8215L0 38.8208ZM71.214 24.1668V26.9808H69.1408V25.2048L71.214 24.1661V24.1668ZM64.5644 33.248H64.5703V27.5244H64.5644V27.086L62.1341 23.6592L108.651 -0.000976562L154.775 23.3274L152.487 27.1904H152.344V27.5237H152.338V33.2473H152.344V33.7902H152.338H64.5703H64.5644V33.2473V33.248ZM65.1531 33.248H151.756V32.2674H149.412V29.009H148.286V32.2674H145.551V29.009H144.425V32.2674H141.69V29.009H140.564V32.2674H137.829V29.009H136.703V32.2674H133.969V29.009H132.843V32.2674H130.108V29.009H128.982V32.2674H126.247V29.009H125.121V32.2674H122.472V29.009H121.346V32.2674H118.697V29.009H117.571V32.2674H114.837V29.009H113.664V32.2674H110.954V29.009H109.828V32.2674H107.107V29.009H105.981V32.2674H103.293V29.009H102.12V32.2674H99.3852V29.009H98.2594V32.2674H95.6108V29.009H94.4849V32.2674H91.8363V29.009H90.7105V32.2674H87.9755V29.009H86.8497V32.2674H84.1147V29.009H82.9889V32.2674H80.2539V29.009H79.1281V32.2674H76.3931V29.009H75.2673V32.2674H72.5324V29.009H71.4065V32.2674H68.6716V29.009H67.5457V32.2674H65.1509V33.248H65.1531ZM66.3343 26.9815H67.1363V26.1833L66.58 26.4665L66.3343 26.685V26.9822V26.9815ZM67.7265 26.9815H68.5284V25.4748L67.7265 25.8824V26.9815ZM71.6005 26.9815H72.4025V23.5716L71.6005 23.9733V26.9815ZM72.5707 26.9815H74.5303L108.639 10.3449L143.262 26.9815H144.708L141.749 25.4998V21.9119L141.565 21.8178L140.947 21.5088V25.0982L137.901 23.5731V19.9823L137.099 19.5806V23.1714L134.087 21.664V18.0717L133.285 17.67V21.2631L130.153 19.6946V16.1001L129.351 15.6984L129.353 19.2907L126.299 17.7649V14.1689L125.497 13.7672V17.3632L122.501 15.8632V12.2657L121.699 11.864V15.4622L118.733 13.9777V10.378L117.931 9.9763V13.576L114.814 12.0156V8.41445L114.012 8.01277V11.6139L111.046 10.1293V6.5267L110.244 6.12502V9.72837L108.64 8.92575L107.036 9.72837V6.21845L106.234 6.62013V10.1293L103.268 11.6139V8.1062L102.466 8.50788V12.0149L99.3491 13.5752V10.069L98.5471 10.4707V13.9762L95.5813 15.4608V11.9567L94.7793 12.3584V15.8625L91.7832 17.3625V13.8599L90.9812 14.2616V17.7642L88.0087 19.2584L87.929 15.7911L87.1271 16.1928V19.6931L83.9945 21.2616V17.7627L83.1925 18.1644V21.6633L80.1809 23.1707V19.6733L79.3789 20.075V23.5724L76.3326 25.0974V21.6015L75.5307 22.0032V25.4984L72.5715 26.98L72.5707 26.9815ZM75.9387 26.9815H141.82L108.626 11.0497L75.9379 26.9815H75.9387ZM144.877 26.9815H145.679V23.9115L144.877 23.5032V26.9815ZM148.751 26.9815H149.553V25.8824L148.751 25.4748V26.9815ZM150.143 26.9815H150.945V26.6843L150.699 26.4658L150.143 26.1826V26.9808V26.9815ZM151.756 27.5244H65.1531V28.3881H151.756V27.5244ZM73.0459 23.2494L75.119 22.2106V25.1497L73.0459 26.0759V23.2494ZM76.8897 21.3234L78.9628 20.2846V23.3892L76.8897 24.3147V21.3234ZM80.7032 19.4128L82.7764 18.3741V21.3675L80.7032 22.2938V19.4136V19.4128ZM84.6983 17.4118L86.7715 16.373V19.3864L84.6983 20.3118V17.4118ZM88.5421 15.4858L90.6153 14.447V17.6251L88.5421 18.5514V15.4858ZM92.3557 13.5752L94.4289 12.5365V15.6035L92.3557 16.529V13.5752ZM96.018 11.7405L98.0912 10.7017V13.6819L96.018 14.6081V11.7405ZM99.8618 9.81445L101.935 8.77567V11.9214L99.8618 12.8476V9.81518V9.81445ZM103.736 7.87373L105.809 6.83495V9.86962L103.736 10.7951V7.87373ZM107.61 5.93301L108.655 5.36948L109.673 5.83958V8.95517L108.651 8.24083L107.611 8.95517V5.93374L107.61 5.93301ZM148.14 25.1121L146.067 24.0734V26.9815H148.14V25.1121ZM144.235 23.156L142.162 22.1172V25.1504L144.235 26.0766V23.156ZM140.392 21.23L138.318 20.1912V23.3899L140.392 24.3154V21.23ZM136.578 19.3194L134.505 18.2806V21.3675L136.578 22.2938V19.3194ZM132.583 17.3184L130.51 16.2796V19.3864L132.583 20.3118V17.3184ZM128.739 15.3924L126.666 14.3536V17.6259L128.739 18.5521V15.3924ZM124.926 13.4818L122.852 12.443V15.6035L124.926 16.529V13.4811V13.4818ZM121.264 11.647L119.191 10.6082V13.6826L121.264 14.6089V11.6478V11.647ZM117.42 9.72101L115.347 8.68224V11.9214L117.42 12.8476V9.72101ZM113.546 7.7803L111.473 6.74152V9.86962L113.546 10.7951V7.77956V7.7803ZM151.758 31.6479H149.685V29.0076H151.758V31.6479ZM107.535 31.6479H107.305V29.0076H109.378V29.0083H109.609V31.6487H107.535V31.6479ZM113.238 31.6479H111.165V29.0076H113.238V31.6479ZM117.185 31.6479H115.112V29.0076H117.185V31.6479ZM121.046 31.6479H118.972V29.0076H121.046V31.6479ZM124.735 31.6479H122.661V29.0076H124.735V31.6479ZM128.595 31.6479H126.522V29.0076H128.595V31.6479ZM132.456 31.6479H130.383V29.0076H132.456V31.6479ZM136.316 31.6479H134.243V29.0076H136.316V31.6479ZM140.177 31.6479H138.104V29.0076H140.177V31.6479ZM144.038 31.6479H141.965V29.0076H144.038V31.6479ZM147.899 31.6479H145.825V29.0076H147.899V31.6479ZM65.1561 29.0083H67.2292V31.6487H65.1561V29.0083ZM103.676 29.0083H105.749V31.6487H103.676V29.0083ZM99.7298 29.0083H101.803V31.6487H99.7298V29.0083ZM95.869 29.0083H97.9421V31.6487H95.869V29.0083ZM92.1801 29.0083H94.2533V31.6487H92.1801V29.0083ZM88.3193 29.0083H90.3925V31.6487H88.3193V29.0083ZM84.4585 29.0083H86.5317V31.6487H84.4585V29.0083ZM80.5977 29.0083H82.6709V31.6487H80.5977V29.0083ZM76.7377 29.0083H78.8108V31.6487H76.7377V29.0083ZM72.8769 29.0083H74.9501V31.6487H72.8769V29.0083ZM69.0161 29.0083H71.0893V31.6487H69.0161V29.0083ZM145.448 73.8744H145.094L144.565 73.1358H144.236V73.8744H143.933V71.735H144.59C144.857 71.735 145.058 71.7968 145.194 71.9197C145.33 72.0433 145.397 72.2095 145.397 72.42C145.397 72.5877 145.354 72.7334 145.267 72.8577C145.18 72.982 145.058 73.0651 144.902 73.1078L145.448 73.8751L145.448 73.8744ZM144.607 71.0545C145.577 71.0545 146.362 71.838 146.362 72.8047C146.362 73.7714 145.577 74.5549 144.607 74.5549C143.638 74.5549 142.852 73.7714 142.852 72.8047C142.852 71.838 143.638 71.0545 144.607 71.0545ZM144.607 71.4437C145.361 71.4437 145.973 72.0528 145.973 72.8055C145.973 73.5573 145.362 74.1665 144.607 74.1665C143.853 74.1665 143.242 73.5573 143.242 72.8055C143.242 72.0536 143.853 71.4437 144.607 71.4437ZM144.235 72.0411V72.8305H144.687C144.807 72.8305 144.905 72.7981 144.981 72.7334C145.057 72.6686 145.094 72.5708 145.094 72.4391C145.094 72.3052 145.057 72.2059 144.982 72.1404C144.908 72.0742 144.811 72.0418 144.694 72.0418H144.236L144.235 72.0411ZM216.823 61.2891C217.391 61.8394 218.265 62.4456 218.157 63.5962C218.123 63.9604 217.836 64.5761 217.642 64.8557C216.988 65.8003 217.234 64.9072 216.749 66.1424C219.638 65.7209 221.219 61.3134 218.854 59.4845C217.747 59.7266 217.245 60.4777 216.822 61.2884L216.823 61.2891ZM119.589 72.0506C125.077 71.5452 127.492 79.3567 121.569 81.5468C114.672 84.0974 111.044 72.8371 119.589 72.0506ZM103.43 82.7106H109.862V82.6643H109.865C109.864 82.6554 109.862 82.6481 109.862 82.6393V81.5644H104.769L104.767 71.1391L103.439 71.1553C103.436 75.0073 103.43 78.8601 103.43 82.7114V82.7106ZM107.834 72.2949C108.738 72.2949 109.646 72.2949 110.551 72.2949L110.557 82.7092L111.893 82.6179L111.902 72.2949C112.828 72.2949 113.757 72.2949 114.681 72.2949C114.681 71.9087 114.681 71.4444 114.681 71.0626H107.834C107.834 71.4437 107.834 71.8939 107.834 72.2949ZM85.0642 72.2037L90.4183 72.2449V71.1516L83.7163 71.1024L83.7104 82.7629H90.4183V81.5792H85.0687L85.0731 77.377L90.4183 77.3358V76.2462H85.0886L85.0635 72.2044L85.0642 72.2037ZM136.97 73.6883C137.103 72.5943 137.734 71.9866 139.16 71.9888C140.98 71.9925 140.904 72.9805 141.548 74.0657L142.668 74.0127C142.291 72.3846 141.808 71.2664 139.948 70.9089C135.895 70.1283 133.994 75.178 137.742 76.7016C138.569 77.0385 139.152 77.1886 139.649 77.3571C141.077 77.8404 141.696 78.3554 141.52 79.8643C141.363 81.2113 140.58 81.9676 138.87 81.8271C137.207 81.6902 136.899 80.8037 136.743 79.4449L135.44 79.4258C135.962 84.0179 141.391 83.8068 142.649 80.8229C143.425 78.9807 142.488 77.3453 141.313 76.6979C139.623 75.7673 136.697 75.9262 136.969 73.6883H136.97ZM97.0472 72.6326C97.6714 74.1172 98.7751 76.0947 99.1499 77.658L94.6613 77.6278L97.0465 72.6326H97.0472ZM94.0725 78.8454L99.8796 78.8461L101.449 82.6989L102.87 82.7312L97.7311 71.1009L96.2379 71.1421L91.0956 82.7239L92.383 82.7253L94.0725 78.8461V78.8454ZM75.8959 72.2081C78.2428 72.1904 82.3323 71.927 81.7988 75.2192C81.4639 77.2865 79.5553 77.2328 77.1936 77.4689C78.3807 79.2007 80.0776 80.9531 81.2079 82.7298L82.8376 82.6554L79.5553 78.3495C83.2869 77.9545 83.6418 74.6336 82.4865 72.8798C80.9821 70.5969 78.1306 71.0921 74.6911 71.1134L74.6896 82.7283L75.5808 82.7239C75.9357 82.175 75.7092 83.3404 75.9033 81.8396L75.8811 74.0877L75.8944 72.2081H75.8959ZM127.207 82.7327L128.416 82.7305L128.412 72.1948C131.159 72.186 133.567 71.866 134.163 74.3136C134.911 77.3909 131.112 77.3968 129.641 77.3917L133.569 82.7305L135.232 82.7621L132.07 78.5518C132.607 78.2649 137.111 77.0201 135.056 73.1527C133.677 70.5572 130.569 71.0994 127.196 71.106L127.206 82.732L127.207 82.7327ZM113.327 77.6595C113.73 80.6198 116.985 83.4993 120.565 82.9277C123.614 82.4406 126.819 79.9717 126.293 76.2087C125.77 72.4626 122.669 70.8191 119.625 70.9332C116.155 71.0634 112.757 73.4757 113.326 77.6595H113.327ZM76.1106 44.9196C78.1926 47.5437 75.8568 41.7171 81.0389 52.2808C81.5428 53.3085 82.7439 55.4582 82.8694 56.8096C83.6034 64.6953 81.1636 62.1491 80.1189 63.9391C80.8161 64.251 87.6022 64.2429 89.0143 64.1002C88.7435 63.1717 89.5787 63.5484 88.0781 63.1283C87.465 62.9569 87.1086 62.9819 86.5546 62.7907C85.7865 60.9713 86.0344 59.4978 86.0293 57.1171C86.0241 54.5945 86.6977 54.3399 87.5668 52.4154C88.2005 51.0132 89.6901 47.4878 90.6972 46.2997C91.4763 45.3794 91.8134 45.7362 92.2281 44.6878L87.8029 44.5745C86.4151 44.5679 86.7383 44.601 86.2985 44.9203C87.3676 46.4968 87.4524 44.6797 88.4322 46.4969C89.0401 47.685 86.0934 52.6523 85.5659 53.8654C84.8459 53.5042 85.2125 53.8897 84.8023 53.2835C84.7743 53.2423 81.7177 46.5947 82.0143 45.9789C82.9675 44.9887 82.8915 45.9216 83.3378 44.5959C82.1508 44.5458 80.9541 44.6157 79.7611 44.615C79.1465 44.615 78.5748 44.5973 77.9624 44.5738C75.783 44.4899 76.4381 44.6834 76.1106 44.9203V44.9196ZM186.088 55.8517C185.921 54.7953 187.453 50.1804 188.455 49.4109C188.906 50.3879 190.806 54.6953 190.662 55.8642L186.087 55.8517H186.088ZM180.049 63.9685C180.809 64.3371 185.889 64.2966 186.602 64.0082C185.745 62.35 186.833 64.3393 183.947 62.2867C183.917 60.474 183.995 60.3629 184.518 58.8952C185.182 57.0325 185.398 57.3216 189.602 57.3702L191.396 57.4151C192.049 58.8643 192.858 60.3534 192.875 62.2852C192.129 62.926 191.442 63.0945 191.149 63.9685L198.849 63.9538C197.859 61.7136 198.233 65.7363 195.79 59.895L191.56 49.2284C190.915 47.6166 190.304 45.2065 189.304 44.0338C188.619 44.5789 188.97 44.1096 188.555 45.0696L184.894 54.2163C184.378 55.5023 182.044 62.0881 181.062 62.8937C180.207 63.5948 180.432 62.8517 180.049 63.9685ZM30.2872 55.8554C30.2149 54.6327 31.827 50.4908 32.6009 49.4697C33.3431 50.3702 35.0879 54.49 34.9566 55.879L30.288 55.8554H30.2872ZM24.3009 63.9685C24.9952 64.3165 30.1581 64.3275 30.7579 63.9685C30.2496 62.5935 28.7593 63.3329 28.2355 62.0873C28.0569 60.2533 28.9172 58.5811 29.5937 57.4261L35.6723 57.3937C36.3901 58.8099 37.184 60.332 37.0475 62.5067C36.3075 63.0474 35.8176 63.1754 35.3425 63.953C36.0057 64.2694 42.147 64.3937 43.0205 63.9685C42.7121 62.8797 43.4352 63.7691 42.1101 63.1195C40.7858 62.4706 41.0212 62.1491 40.0857 59.781L34.3229 45.2889C33.8596 44.1456 34.238 44.5988 33.4973 44.0757C32.5854 45.2219 29.8468 52.5316 29.1643 54.2877L26.0834 61.9454C25.263 63.5727 24.8107 62.5067 24.3016 63.9685H24.3009ZM199.146 63.9685C199.926 64.3702 204.69 64.2826 205.728 64.059C205.388 62.9643 205.97 63.5624 204.56 63.0334C203.917 62.7929 203.599 62.6707 203.208 62.0123C202.276 60.4438 202.502 50.7182 202.808 49.188C203.869 50.1112 204.966 51.7121 205.866 52.8163L213.896 62.6465C214.516 63.4491 214.678 64.0391 215.871 64.3422C215.91 62.3014 215.315 47.4282 216.457 46.0966C216.828 45.6648 216.877 45.8171 217.312 45.4765C217.858 45.0483 217.706 45.2911 217.952 44.5804L211.68 44.5745C212.204 46.4145 212.392 45.0027 213.903 46.2828C215.246 47.4201 214.677 56.2093 214.659 58.1117C213.421 57.4474 210.082 52.8384 208.984 51.4862L203.334 44.5319L198.667 44.6209C199.218 47.4179 202.303 41.6325 201.445 60.0922C201.281 63.6102 199.628 62.013 199.147 63.967L199.146 63.9685ZM123.747 54.7416C122.373 43.0811 134.906 41.8643 135.814 53.861C136.164 58.4788 134.66 62.9562 130.212 63.1129C125.736 63.2703 124.227 58.8047 123.747 54.7416ZM127.9 44.5664C122.314 45.862 119.936 50.7645 120.616 56.5374C121.226 61.7166 125.371 65.5951 131.854 64.1244C142.729 61.6585 141.204 41.481 127.9 44.5664ZM144.73 46.012C149.654 44.1206 152.513 53.1253 146.931 53.5939C143.526 53.8801 144.241 53.2967 144.238 50.2768C144.237 48.1484 143.966 47.1854 144.73 46.0113V46.012ZM138.482 44.9196L138.757 45.2859C139.706 45.9024 141.022 45.4647 141.205 48.1896L141.211 60.1106C141.095 62.7112 140.299 62.6781 139.797 63.0842C139.228 63.544 139.387 63.246 139.158 64.0781L146.689 64.1156C146.003 62.0653 144.353 64.0619 144.23 60.7087C144.175 59.1836 144.146 56.5984 144.332 55.1345L146.678 55.0293C149.867 59.0637 150.161 65.7988 154.853 63.8655C155.723 63.5065 155.949 63.3137 155.787 62.2757C154.024 62.7068 154.137 62.5037 152.446 59.0637C151.835 57.8204 150.428 55.3919 150.135 54.0604C153.505 52.5022 156.123 44.2118 145.13 44.5701L140.04 44.5495C138.905 44.5377 139.074 44.5157 138.483 44.9203L138.482 44.9196ZM48.7228 46.1099C49.4097 45.4426 51.1494 45.7906 51.7647 46.068C53.6777 46.9309 56.4798 53.3497 50.5149 53.6256C48.6999 53.7094 48.4602 53.9029 48.3856 52.3992C48.3274 51.2309 48.1658 46.6521 48.7235 46.1099H48.7228ZM45.1261 46.6124L45.1933 61.014C44.9491 63.6904 43.6919 62.2941 43.3798 63.9677C43.9922 64.2627 50.1268 64.2127 50.8129 64.0472C49.7904 60.8897 48.1341 67.332 48.4351 55.0624L50.8174 55.0498C53.266 57.7012 53.9264 63.5433 56.9084 64.1333C58.2143 64.3915 60.1598 63.9324 59.9326 62.3117L58.3958 62.4294C56.8686 59.948 55.6542 56.8758 54.1691 54.4363C55.3362 53.1496 56.7078 53.0532 57.042 50.5482C57.7731 45.0623 53.1487 44.4362 49.3152 44.5686C47.5402 44.6297 44.0401 44.3251 42.5734 44.7445C42.8324 45.4985 44.1936 45.8399 45.1254 46.6131L45.1261 46.6124ZM65.9447 47.8954C65.9462 45.7031 66.8566 45.1152 69.1091 46.0209C71.7547 47.0839 74.2278 54.8181 66.0377 53.4689L65.9447 47.8954ZM60.0632 44.9188C62.2868 47.7232 62.7546 42.0048 62.7546 54.1457C62.7553 67.1768 61.8589 60.7955 60.7633 63.8721C61.5638 64.3606 67.3701 64.3142 68.417 63.9839C67.652 62.3103 67.0669 63.8052 66.231 62.2676C65.5323 60.5623 65.8031 57.1156 66.0281 55.0535L68.3669 55.0631C71.166 58.2927 71.7127 66.0335 76.6506 63.8375C76.8624 63.7434 77.2836 63.4778 77.3825 63.3402C78.1439 62.2919 77.3655 62.4684 77.3582 62.4559L75.9298 62.4567C74.5376 60.3541 73.1189 56.9516 71.7481 54.4429C72.7087 53.126 74.1658 52.9796 74.6055 50.4916C74.9818 48.3618 73.8397 46.541 72.7279 45.6773C71.0915 44.4061 69.4477 44.4774 66.9253 44.562L61.5336 44.5399C60.3435 44.5311 60.5678 44.5341 60.0624 44.9188H60.0632ZM157.397 63.9825L163.621 64.1311C163.101 62.4743 162.569 63.5668 161.618 62.4037C160.388 60.8985 161.243 53.1408 161.345 51.0183C162.425 53.0709 163.241 55.3552 164.114 57.5335C164.631 58.8246 166.157 63.5646 167.217 64.2201C168.121 63.2843 169.569 59.3183 170.267 57.7829L172.422 52.8009C172.917 51.5995 172.647 51.7283 173.455 51.0676L173.771 61.8777C173.446 63.4307 172.623 62.492 171.994 63.9913C172.779 64.2399 178.681 64.2245 179.43 63.967C178.884 62.1521 177.293 63.9854 177.03 60.3968L176.525 48.4854C176.42 44.4347 178.296 46.5013 178.856 44.5863L174.61 44.5782L169.149 57.2679C169.014 57.5821 168.979 57.8064 168.821 58.1198C168.173 59.408 168.69 58.562 168.032 59.0093L162.155 44.6069L157.378 44.5797C157.857 46.641 159.516 44.8887 159.862 48.1749L159.566 59.8259C159.294 64.1671 158.073 61.9711 157.397 63.981V63.9825ZM97.6618 64.2598L105.452 64.1686C104.636 59.6633 101.096 69.9643 101.856 44.8327C102.84 45.3087 108.576 53.3173 109.629 54.7166C110.925 56.4395 112.025 58.0051 113.451 59.8281C114.839 61.6018 116.31 64.3812 117.509 64.4047C118.027 62.2749 117.583 47.7115 117.664 43.4188C117.749 38.9392 119.875 41.1573 120.072 38.6589C106.238 38.7833 115.217 39.2975 116.06 42.0548C116.347 42.9928 116.224 54.7688 116.117 56.4771C114.87 55.5692 110.763 49.6132 109.423 47.7784L102.745 38.7237L97.149 38.7185C96.9631 41.5847 99.3233 38.67 100.147 43.3511C100.522 45.4772 100.343 48.8282 100.343 51.1684C100.343 53.7352 100.397 56.3594 100.347 58.9188C100.26 63.4682 97.5032 61.5819 97.6633 64.2591L97.6618 64.2598Z" fill="#541E12"/>
</g>
<defs>
<clipPath id="clip0">
<rect width="220" height="83" fill="white"/>
</clipPath>
</defs>
</svg>
