<svg width="13" height="16" viewBox="0 0 13 16" fill="none" xmlns="http://www.w3.org/2000/svg">
<path d="M11.652 6.68956C11.7092 6.36194 11.7407 6.02492 11.7407 5.68037C11.7407 2.54835 9.26624 0 6.22471 0C3.18305 0 0.708419 2.54835 0.708419 5.68037C0.708419 6.02492 0.740107 6.36167 0.797441 6.68956C0.318493 6.99543 0 7.53024 0 8.14104V13.7019C0 14.6531 0.771124 15.4241 1.72204 15.4241H10.7273C11.6779 15.4241 12.4489 14.6531 12.4489 13.7019H12.4494V8.14104C12.4494 7.53037 12.1312 6.99543 11.652 6.68956ZM6.98456 11.5451V12.7535C6.98456 13.1736 6.64431 13.5138 6.22444 13.5138C5.80457 13.5138 5.46433 13.1736 5.46433 12.7535V11.5446C4.97679 11.2759 4.64608 10.7575 4.64608 10.1613C4.64608 9.2896 5.35275 8.5828 6.22471 8.5828C7.09667 8.5828 7.80348 9.2896 7.80348 10.1613C7.80348 10.7577 7.4725 11.2766 6.98456 11.5451ZM9.64193 6.41873H2.80736C2.7605 6.1804 2.73552 5.93321 2.73552 5.68037C2.73552 3.66589 4.30073 2.0271 6.22471 2.0271C8.14856 2.0271 9.71363 3.66576 9.71363 5.68037C9.71363 5.93321 9.68893 6.1804 9.64193 6.41873Z" fill="#A3B4B9"/>
</svg>
