<svg width="25" height="25" viewBox="0 0 25 25" fill="none" xmlns="http://www.w3.org/2000/svg">
<rect width="25" height="25" rx="4" fill="#F05825"/>
<path d="M6.5791 18.526C6.5791 18.2593 6.6533 18.0336 6.8017 17.849L11.0644 12.3405L7.1022 7.20141C6.93155 6.97574 6.84622 6.73639 6.84622 6.48337C6.84622 6.14144 6.97235 5.85423 7.22463 5.62172C7.48433 5.38237 7.79967 5.2627 8.17066 5.2627C8.63069 5.2627 8.98685 5.43024 9.23912 5.76533L12.5002 10.248L15.7612 5.76533C16.0135 5.43024 16.3696 5.2627 16.8296 5.2627C17.2006 5.2627 17.5123 5.38237 17.7645 5.62172C18.0242 5.85423 18.1541 6.14144 18.1541 6.48337C18.1541 6.73639 18.0688 6.97574 17.8981 7.20141L13.9359 12.3405L18.1986 17.849C18.347 18.0336 18.4212 18.2593 18.4212 18.526C18.4212 18.8679 18.2914 19.1551 18.0317 19.3876C17.7794 19.6201 17.4715 19.7364 17.1079 19.7364C16.6553 19.7364 16.288 19.5552 16.006 19.1927L12.5002 14.4024L8.99427 19.1927C8.71231 19.5552 8.34503 19.7364 7.89242 19.7364C7.52884 19.7364 7.21721 19.6201 6.95751 19.3876C6.70524 19.1551 6.5791 18.8679 6.5791 18.526Z" fill="white"/>
</svg>
